# xmcd CD database file
#
# Track frame offsets:
#	150
#	14980
#	27903
#	49636
#
# Disc length: 1067 seconds
#
# Revision: 0
# Processed by: cddbd v1.5PL3 Copyright (c) Steve Scherf et al.
# Submitted via: CDex 1.51
#
DISCID=2e042904
DTITLE=reach up to the universe+new age septembers - reach up to the universe+new age septembers
DYEAR=1900
DGENRE=Rock
TTITLE0=reach up to the universe - faster, mistake
TTITLE1=reach up to the universe - in
TTITLE2=new age septembers - other clear light
TTITLE3=new age septembers - circle&sympathy
EXTD=
EXTT0=
EXTT1=
EXTT2=
EXTT3=
PLAYORDER=
